# xmcd CD database file
#
# Track frame offsets:
#	150
#	16952
#	35894
#	57380
#	79350
#	106958
#	116022
#	135453
#	161746
#	165254
#	178835
#	204655
#	214051
#
# Disc length: 3080 seconds
#
# Revision: 3
# Processed by: cddbd v1.5.2PL0 Copyright (c) Steve Scherf et al.
# Submitted via: CDex 1.50
#
DISCID=b70c060d
DTITLE=HAZMAT MODINE - Cicada_feat.  Merchant, Gangbé Brass Band, Kronos Quartett
DYEAR=2011
DGENRE=Crossover
TTITLE0=Mocking Bird
TTITLE1=Child Of A Blind Man
TTITLE2=Two Forty Seven
TTITLE3=Cicada
TTITLE4=Buddy
TTITLE5=In Two Years
TTITLE6=I've Been Lonely For So Long
TTITLE7=The Tide
TTITLE8=Ebb Tide
TTITLE9=Walking Stick
TTITLE10=So Glad
TTITLE11=Cotonou Stomp
TTITLE12=Dead Crow
EXTD=YEAR: 2011
EXTT0=
EXTT1=
EXTT2=
EXTT3=
EXTT4=
EXTT5=
EXTT6=
EXTT7=
EXTT8=
EXTT9=
EXTT10=
EXTT11=
EXTT12=
PLAYORDER=
